Coordinates
version=1
nRows=11
nColumns=63
inDegrees=yes

Units are S.I. units (second, meters, Newtons, ...)
If the header above contains a line with 'inDegrees', this indicates whether rotational values are in degrees (yes) or radians (no).

endheader
time	pelvis_tilt	pelvis_list	pelvis_rotation	pelvis_tx	pelvis_ty	pelvis_tz	hip_flexion_r	hip_adduction_r	hip_rotation_r	knee_angle_r	knee_angle_r_beta	ankle_angle_r	subtalar_angle_r	mtp_angle_r	hip_flexion_l	hip_adduction_l	hip_rotation_l	knee_angle_l	knee_angle_l_beta	ankle_angle_l	subtalar_angle_l	mtp_angle_l	L5_S1_Flex_Ext	L5_S1_Lat_Bending	L5_S1_axial_rotation	L4_L5_Flex_Ext	L4_L5_Lat_Bending	L4_L5_axial_rotation	L3_L4_Flex_Ext	L3_L4_Lat_Bending	L3_L4_axial_rotation	L2_L3_Flex_Ext	L2_L3_Lat_Bending	L2_L3_axial_rotation	L1_L2_Flex_Ext	L1_L2_Lat_Bending	L1_L2_axial_rotation	L1_T12_Flex_Ext	L1_T12_Lat_Bending	L1_T12_axial_rotation	Abs_r3	Abs_r2	Abs_r1	Abs_t1	Abs_t2	neck_flexion	neck_bending	neck_rotation	arm_flex_r	arm_add_r	arm_rot_r	elbow_flex_r	pro_sup_r	wrist_flex_r	wrist_dev_r	arm_flex_l	arm_add_l	arm_rot_l	elbow_flex_l	pro_sup_l	wrist_flex_l	wrist_dev_l
      3.59322034	      4.76282272	     -6.84385434	     95.77397853	      0.07549781	      0.66845430	      0.82342169	      5.07006548	      3.35163827	     -2.10455876	     10.15347308	      0.17721154	     32.43532597	      0.39509474	      0.00000000	      3.16905138	     -2.85376860	     -1.25487155	      5.28595276	      0.09225728	     32.69660650	      4.90810218	      0.00000000	     -0.08110312	      0.24414145	     -0.00937186	     -0.15061661	      0.32470813	     -0.00995760	     -0.13324432	      0.59360552	     -0.00995760	     -0.09269276	      0.59360552	     -0.00820038	     -0.07531236	      0.49785325	     -0.00761464	     -0.04634233	      0.37817511	     -0.00702890	     -0.57931151	      2.76177692	     -0.05212348	      0.00000000	      0.00000000	     13.80183789	     -4.33410005	     -0.63053511	    363.98378519	    -38.42909701	    367.95685757	     64.36051537	     88.64681530	     -4.92930995	     14.24577421	    191.32263992	   -145.16230124	    169.43568254	     61.55006048	     89.20175917	    -13.34382727	      8.92409173
      3.61016949	      4.85833924	     -6.78492207	     96.14427094	      0.07448410	      0.66657585	      0.82498589	      5.15933043	      3.40512431	     -2.31439314	     10.25337002	      0.17895507	     32.73547635	      0.09856133	      0.00000000	      3.27067084	     -2.85204112	      0.23168384	      5.20641728	      0.09086912	     33.28904492	      3.75173525	      0.00000000	     -0.08512583	      0.24951382	     -0.21455973	     -0.15808718	      0.33185338	     -0.22796972	     -0.13985323	      0.60666791	     -0.22796972	     -0.09729031	      0.60666791	     -0.18773977	     -0.07904785	      0.50880859	     -0.17432978	     -0.04864090	      0.38649691	     -0.16091980	     -0.60804531	      2.82255025	     -1.19331687	      0.00000000	      0.00000000	     15.15853594	     -4.37632335	     -0.93766545	    367.22052844	    -35.42120274	    377.16490976	     59.47117316	     88.78804279	     -4.68694866	     13.05229547	    190.84712227	   -147.95021846	    172.62022861	     59.53196256	     89.12917714	    -11.72473475	     10.62497682
      3.62711864	      5.01321656	     -6.84218521	     96.73150663	      0.07310695	      0.66478586	      0.82696133	      5.32324467	      3.49813216	     -2.58559044	     10.20843433	      0.17817079	     32.78110937	     -0.53029684	      0.00000000	      3.65531026	     -2.88474481	      1.84341542	      5.32452377	      0.09293047	     33.80048352	      2.83833685	      0.00000000	     -0.08708827	      0.26152306	     -0.44259817	     -0.16173162	      0.34782567	     -0.47026056	     -0.14307732	      0.63586716	     -0.47026056	     -0.09953318	      0.63586716	     -0.38727340	     -0.08087017	      0.53329782	     -0.35961102	     -0.04976224	      0.40509921	     -0.33194863	     -0.62206279	      2.95840112	     -2.46159826	      0.00000000	      0.00000000	     16.64818449	     -4.20583872	     -1.07759040	    370.32093641	    -32.49519515	    386.55223243	     54.98903349	     88.84796004	     -4.42493117	     11.95292817	    190.42586772	   -150.60046585	    176.56309341	     58.02853885	     89.05186673	    -10.50344115	     10.76274932
      3.64406780	      5.24950216	     -6.98892224	     97.49649407	      0.07133430	      0.66316472	      0.82938136	      5.52897254	      3.65072543	     -2.83794500	      9.99783639	      0.17449516	     32.57532131	     -1.42745569	      0.00000000	      4.30764071	     -2.96903757	      3.50157848	      5.70503267	      0.09957160	     34.29796301	      2.24121975	      0.00000000	     -0.08588517	      0.28976676	     -0.66156775	     -0.15949735	      0.38538979	     -0.70291573	     -0.14110075	      0.70453890	     -0.70291573	     -0.09815816	      0.70453890	     -0.57887178	     -0.07975297	      0.59089238	     -0.53752380	     -0.04907479	      0.44884871	     -0.49617581	     -0.61346920	      3.27789956	     -3.67944134	      0.00000000	      0.00000000	     17.97462844	     -3.97168970	     -1.00066567	    372.95765140	    -29.67947496	    395.55191185	     51.30936566	     88.85146884	     -4.34600144	     11.18894281	    190.35446492	   -153.06986477	    181.78153981	     56.87080367	     88.97295104	     -9.54328144	      9.70962681
      3.66101695	      5.56575460	     -7.18425641	     98.30524269	      0.06939142	      0.66179877	      0.83181250	      5.71438546	      3.88244078	     -2.94981269	      9.65406711	      0.16849526	     32.10238542	     -2.54921337	      0.00000000	      5.11282499	     -3.10594411	      4.98299612	      6.32150385	      0.11033106	     34.73135893	      1.85836443	      0.00000000	     -0.07803703	      0.33457422	     -0.83432862	     -0.14492258	      0.44498371	     -0.88647416	     -0.12820704	      0.81348376	     -0.88647416	     -0.08918853	      0.81348376	     -0.73003754	     -0.07246519	      0.68226375	     -0.67789200	     -0.04459036	      0.51825547	     -0.62574646	     -0.55741073	      3.78477049	     -4.64028547	      0.00000000	      0.00000000	     18.77387549	     -3.60110777	     -0.89937526	    374.72604194	    -26.89185280	    403.03358745	     48.62990196	     88.76477954	     -4.13670578	     11.04901255	    190.96109967	   -155.37011424	    188.49222539	     55.75269561	     88.90837243	     -8.75082998	      7.80554101
      3.67796610	      5.87605074	     -7.41471941	     98.95926084	      0.06742412	      0.66046544	      0.83364227	      5.84576659	      4.08190323	     -3.18467128	      9.23385903	      0.16116124	     31.68578368	     -3.19511520	      0.00000000	      5.89576107	     -3.23045416	      5.91124275	      7.00658440	      0.12228797	     35.27886784	      1.90277069	      0.00000000	     -0.05965081	      0.38261890	     -0.93313150	     -0.11077752	      0.50888313	     -0.99145222	     -0.09800032	      0.93029959	     -0.99145222	     -0.06817491	      0.93029959	     -0.81649006	     -0.05539174	      0.78023646	     -0.75816934	     -0.03408447	      0.59267667	     -0.69984862	     -0.42607979	      4.32826150	     -5.18979745	      0.00000000	      0.00000000	     18.96364854	     -2.78168003	     -1.16967117	    375.38239843	    -24.12274884	    407.94054076	     47.04230182	     88.63696437	     -2.88860068	     11.76731202	    192.25136427	   -157.48635165	    196.25241785	     54.85949944	     88.92984064	     -7.19402021	      6.03628786
      3.69491525	      6.34437050	     -7.54957720	     99.75150865	      0.06536128	      0.65944524	      0.83468571	      5.64508246	      4.55419645	     -2.73484648	      8.40588253	      0.14671033	     30.71738760	     -5.03485366	      0.00000000	      6.56009522	     -3.50920163	      7.09231028	      7.69015114	      0.13421846	     35.69165314	      1.52511631	      0.00000000	     -0.04300975	      0.44704575	     -1.03247049	     -0.07987341	      0.59457084	     -1.09699990	     -0.07066072	      1.08694703	     -1.09699990	     -0.04915584	      1.08694703	     -0.90341168	     -0.03993885	      0.91161569	     -0.83888227	     -0.02457577	      0.69247386	     -0.77435287	     -0.30721434	      5.05707090	     -5.74229113	      0.00000000	      0.00000000	     18.78421131	     -1.77412791	     -2.16787091	    375.29055846	    -21.43268591	    411.30620485	     46.13801632	     88.40021296	     -2.67338568	     11.67162037	    194.19988295	   -159.38015658	    205.80663892	     53.91925726	     88.90644361	     -8.73784365	      2.25180768
      3.71186441	      6.72561369	     -7.76854973	    100.05669063	      0.06381136	      0.65830569	      0.83458122	      5.44176064	      4.88302481	     -2.73200299	      7.57933148	      0.13228429	     30.07261556	     -5.32996758	      0.00000000	      6.97908302	     -3.75517983	      7.52733529	      8.03606335	      0.14025576	     35.99809724	      1.43726351	      0.00000000	     -0.00108446	      0.50218109	     -1.12396773	     -0.00201394	      0.66790086	     -1.19421571	     -0.00178165	      1.22100311	     -1.19421571	     -0.00123943	      1.22100311	     -0.98347176	     -0.00100703	      1.02404769	     -0.91322378	     -0.00061966	      0.77787852	     -0.84297580	     -0.00774616	      5.68077298	     -6.25117132	      0.00000000	      0.00000000	     18.40293818	     -0.03236077	     -2.90225489	    374.94538013	    -18.78063564	    413.51937106	     46.03192843	     88.30695362	     -1.71230264	     11.91332599	    195.29181667	   -161.29055146	    212.82848569	     54.41970454	     89.00768919	     -7.17903714	      1.30463175
      3.72881356	      6.88971123	     -7.51214573	    100.54478733	      0.06230310	      0.65799969	      0.83376156	      4.40269904	      5.33436208	      0.90925189	      6.20389748	      0.10827844	     28.16974943	    -11.07406207	      0.00000000	      6.75357357	     -3.78219765	      9.42434815	      8.24714989	      0.14393992	     35.87517080	     -0.52250111	      0.00000000	     -0.02399372	      0.51984683	     -1.14675467	     -0.04455875	      0.69139628	     -1.21842684	     -0.03941929	      1.26395557	     -1.21842684	     -0.02742243	      1.26395557	     -1.00341034	     -0.02228057	      1.06007165	     -0.93173817	     -0.01371001	      0.80524273	     -0.86006600	     -0.17138478	      5.88061126	     -6.37790547	      0.00000000	      0.00000000	     18.18932152	      1.68019650	     -5.73688775	    373.44855309	    -16.19139983	    412.68273178	     46.62804274	     88.30485055	     -1.40973532	     11.06558413	    197.21167576	   -163.02038555	    221.66781586	     54.66235774	     88.88675708	     -8.30676605	     -0.59906350
      3.74576271	      7.00591023	     -7.43568466	    100.86259265	      0.06113471	      0.65760247	      0.83225000	      3.67139297	      5.48536115	      1.21838747	      5.22553376	      0.09120277	     27.47052307	    -11.80765764	      0.00000000	      6.59473383	     -3.85096925	      9.92617319	      8.37318001	      0.14613956	     35.70280885	     -0.87664500	      0.00000000	     -0.00949623	      0.52565274	     -1.24174205	     -0.01763545	      0.69911815	     -1.31935093	     -0.01560136	      1.27807208	     -1.31935093	     -0.01085324	      1.27807208	     -1.08652430	     -0.00881820	      1.07191107	     -1.00891542	     -0.00542615	      0.81423610	     -0.93130654	     -0.06783063	      5.94628894	     -6.90619678	      0.00000000	      0.00000000	     18.39619149	      3.49180013	     -8.21193331	    372.40104875	    -13.86539700	    412.68036313	     47.47435773	     88.34822466	     -1.75896061	      8.86406023	    197.42857522	   -164.60617208	    226.83286683	     56.29399080	     88.76002817	     -6.06248804	      0.62498436
      3.76271186	      6.97293891	     -7.29635190	    101.00553378	      0.06050148	      0.65749720	      0.82994127	      2.83226643	      5.54059410	      2.19005422	      4.31737290	      0.07535237	     26.68350564	    -13.18994622	      0.00000000	      6.09347626	     -3.82010687	     10.56713397	      8.12824942	      0.14186471	     35.35764009	     -1.60098258	      0.00000000	      0.00349627	      0.50768130	     -1.32144178	      0.00649293	      0.67521613	     -1.40403189	      0.00574403	      1.23437632	     -1.40403189	      0.00399589	      1.23437632	     -1.15626155	      0.00324664	      1.03526371	     -1.07367144	      0.00199777	      0.78639834	     -0.99108133	      0.02497354	      5.74299245	     -7.34946273	      0.00000000	      0.00000000	     19.11852595	      5.17616357	    -10.60454788	    371.54068117	    -11.77228599	    412.83596797	     48.26494121	     88.37202532	     -1.96625271	      6.00019291	    197.00694494	   -165.96718027	    230.54458037	     58.09755183	     88.35944770	     -2.56664307	      3.17363809
